<?xml version="1.0" standalone="no"?>
<svg xmlns:xlink="http://www.w3.org/1999/xlink" id="wave" style="transform:rotate(0deg); transition: 0.3s" viewBox="0 0 1440 220" version="1.1" xmlns="http://www.w3.org/2000/svg"><defs><linearGradient id="sw-gradient-0" x1="0" x2="0" y1="1" y2="0"><stop stop-color="rgb(250 204 21  )" offset="0%"/><stop stop-color="rgb(250 204 21 )" offset="100%"/></linearGradient></defs><path style="transform:translate(0, 0px); opacity:1" fill="url(#sw-gradient-0)" d="M0,110L48,91.7C96,73,192,37,288,33C384,29,480,59,576,84.3C672,110,768,132,864,132C960,132,1056,110,1152,117.3C1248,125,1344,161,1440,176C1536,191,1632,183,1728,165C1824,147,1920,117,2016,110C2112,103,2208,117,2304,117.3C2400,117,2496,103,2592,95.3C2688,88,2784,88,2880,99C2976,110,3072,132,3168,143C3264,154,3360,154,3456,139.3C3552,125,3648,95,3744,91.7C3840,88,3936,110,4032,113.7C4128,117,4224,103,4320,95.3C4416,88,4512,88,4608,80.7C4704,73,4800,59,4896,73.3C4992,88,5088,132,5184,128.3C5280,125,5376,73,5472,44C5568,15,5664,7,5760,36.7C5856,66,5952,132,6048,161.3C6144,191,6240,183,6336,176C6432,169,6528,161,6624,139.3C6720,117,6816,81,6864,62.3L6912,44L6912,220L6864,220C6816,220,6720,220,6624,220C6528,220,6432,220,6336,220C6240,220,6144,220,6048,220C5952,220,5856,220,5760,220C5664,220,5568,220,5472,220C5376,220,5280,220,5184,220C5088,220,4992,220,4896,220C4800,220,4704,220,4608,220C4512,220,4416,220,4320,220C4224,220,4128,220,4032,220C3936,220,3840,220,3744,220C3648,220,3552,220,3456,220C3360,220,3264,220,3168,220C3072,220,2976,220,2880,220C2784,220,2688,220,2592,220C2496,220,2400,220,2304,220C2208,220,2112,220,2016,220C1920,220,1824,220,1728,220C1632,220,1536,220,1440,220C1344,220,1248,220,1152,220C1056,220,960,220,864,220C768,220,672,220,576,220C480,220,384,220,288,220C192,220,96,220,48,220L0,220Z"/></svg>